<svg width="240" height="32" viewBox="0 0 240 32" fill="none" xmlns="http://www.w3.org/2000/svg">
<path d="M4 25.3333C4 26.8061 5.19391 28 6.66667 28H12C13.4728 28 14.6667 26.8061 14.6667 25.3333V6.66667C14.6667 5.19391 13.4728 4 12 4H6.66667C5.19391 4 4 5.19391 4 6.66667V25.3333Z" fill="url(#paint0_linear_883_81947)"/>
<path d="M4 21.3333C4 22.8061 5.19391 24 6.66667 24H12C13.4728 24 14.6667 22.8061 14.6667 21.3333V6.66667C14.6667 5.19391 13.4728 4 12 4H6.66667C5.19391 4 4 5.19391 4 6.66667V21.3333Z" fill="url(#paint1_linear_883_81947)"/>
<path d="M4 17.3333C4 18.8061 5.19391 20 6.66667 20H12C13.4728 20 14.6667 18.8061 14.6667 17.3333V6.66667C14.6667 5.19391 13.4728 4 12 4H6.66667C5.19391 4 4 5.19391 4 6.66667V17.3333Z" fill="url(#paint2_linear_883_81947)"/>
<path d="M17.332 6.66667C17.332 5.19391 18.5259 4 19.9987 4H25.332C26.8048 4 27.9987 5.19391 27.9987 6.66667V25.3333C27.9987 26.8061 26.8048 28 25.332 28H19.9987C18.5259 28 17.332 26.8061 17.332 25.3333V6.66667Z" fill="url(#paint3_linear_883_81947)"/>
<path d="M17.332 10.6667C17.332 9.19391 18.5259 8 19.9987 8H25.332C26.8048 8 27.9987 9.19391 27.9987 10.6667V25.3333C27.9987 26.8061 26.8048 28 25.332 28H19.9987C18.5259 28 17.332 26.8061 17.332 25.3333V10.6667Z" fill="url(#paint4_linear_883_81947)"/>
<path d="M17.332 14.6667C17.332 13.1939 18.5259 12 19.9987 12H25.332C26.8048 12 27.9987 13.1939 27.9987 14.6667V25.3333C27.9987 26.8061 26.8048 28 25.332 28H19.9987C18.5259 28 17.332 26.8061 17.332 25.3333V14.6667Z" fill="url(#paint5_linear_883_81947)"/>
<path d="M141.158 13.1451C142.709 10.7071 144.736 9.59894 147.585 9.59894H147.997V13.4934C144.546 13.4934 141.158 15.4248 141.158 18.591V25.4301H137.422V9.59894H141.158V13.1451Z" fill="#17294D"/>
<path d="M131.497 15.2665C130.896 13.6834 129.756 12.7968 127.635 12.7968C125.798 12.7968 124.468 13.6834 123.772 15.2665H131.497ZM119.402 17.2929C119.402 12.5435 123.17 8.99734 127.888 8.99734C132.384 8.99734 135.613 12.3852 135.613 17.2929V18.4327H123.36C123.55 20.6808 125.608 22.2005 127.635 22.2005C129.376 22.2005 130.896 21.219 131.814 19.7625L134.854 22.0106C133.175 24.4802 130.706 25.9684 127.635 25.9684C122.759 25.9684 119.402 22.0106 119.402 17.2929Z" fill="#17294D"/>
<path d="M105.199 2H108.967V15.3615L115.141 9.59896H119.986L113.4 15.7731L120.682 25.4301H116.344L110.962 18.0211L108.967 19.8892V25.4301H105.199V2Z" fill="#17294D"/>
<path d="M91.8328 17.5145C91.8328 20.9657 94.3974 22.3272 96.5188 22.3272C98.3236 22.3272 100.065 21.124 100.888 19.9525L103.801 21.9472C102.028 24.6385 99.7167 26 96.5188 26C91.3895 26 87.875 22.1372 87.875 17.5145C87.875 12.9235 91.3895 9.02899 96.5188 9.02899C99.7167 9.02899 101.965 10.2638 103.738 12.8918L100.888 15.0765C99.9384 13.6834 98.3236 12.7335 96.5188 12.7335C94.3974 12.7335 91.8328 14.0633 91.8328 17.5145Z" fill="#17294D"/>
<path d="M82.4061 9.59902H86.174V25.4302H82.4061V23.8471C81.108 25.1452 79.3349 25.9685 77.1818 25.9685C72.3375 25.9685 68.918 22.2323 68.918 17.5146C68.918 12.8286 72.3375 9.06076 77.1818 9.06076C79.3349 9.06076 81.108 9.91564 82.4061 11.2771V9.59902ZM72.7491 17.5146C72.7491 20.2692 74.9338 22.3273 77.5618 22.3273C80.1581 22.3273 82.4061 20.2059 82.4061 17.5146C82.4061 14.8233 80.1581 12.7336 77.5618 12.7336C74.9338 12.7336 72.7491 14.76 72.7491 17.5146Z" fill="#17294D"/>
<path d="M61.5604 13.1451C63.1118 10.7071 65.1382 9.59895 67.9878 9.59895H68.3994V13.4934C64.9482 13.4934 61.5604 15.4248 61.5604 18.5911V25.4301H57.8242V9.59895H61.5604V13.1451Z" fill="#17294D"/>
<path d="M43.3562 3.26649H47.124V9.59897H53.3932V13.0502H47.124V21.6623H43.3562V13.0502H40V9.59897H43.3562V3.26649ZM43.3562 21.6623C43.3562 23.5304 44.4961 25.4301 47.124 25.4301V21.6623H56.2428V25.4301H47.124V21.6623H43.3562Z" fill="#17294D"/>
<path d="M141.158 13.1451C142.709 10.7071 144.736 9.59894 147.585 9.59894H147.997V13.4934C144.546 13.4934 141.158 15.4248 141.158 18.591V25.4301H137.422V9.59894H141.158V13.1451Z" fill="#17294D" transform="translate(19 0)"/>
<path d="M131.497 15.2665C130.896 13.6834 129.756 12.7968 127.635 12.7968C125.798 12.7968 124.468 13.6834 123.772 15.2665H131.497ZM119.402 17.2929C119.402 12.5435 123.17 8.99734 127.888 8.99734C132.384 8.99734 135.613 12.3852 135.613 17.2929V18.4327H123.36C123.55 20.6808 125.608 22.2005 127.635 22.2005C129.376 22.2005 130.896 21.219 131.814 19.7625L134.854 22.0106C133.175 24.4802 130.706 25.9684 127.635 25.9684C122.759 25.9684 119.402 22.0106 119.402 17.2929Z" fill="#17294D" transform="translate(50 0)"/>
<path d="M43.3562 3.26649H47.124V9.59897H53.3932V13.0502H47.124V21.6623H43.3562V13.0502H40V9.59897H43.3562V3.26649ZM43.3562 21.6623C43.3562 23.5304 44.4961 25.4301 47.124 25.4301V21.6623H56.2428V25.4301H47.124V21.6623H43.3562Z" fill="#17294D" transform="translate(148 0)"/>
<path d="M141.158 13.1451C142.709 10.7071 144.736 9.59894 147.585 9.59894H147.997V13.4934C144.546 13.4934 141.158 15.4248 141.158 18.591V25.4301H137.422V9.59894H141.158V13.1451Z" fill="#17294D" transform="translate(68.6 0)"/>
<path fill-rule="evenodd" clip-rule="evenodd" d="M226.7 8.99734C231.576 8.99734 235.122 12.7652 235.122 17.4829C235.122 22.2005 231.576 25.9684 226.7 25.9684C221.824 25.9684 218.278 22.2005 218.278 17.4829C218.278 12.7652 221.824 8.99734 226.7 8.99734ZM226.7 12.7335C224.072 12.7335 222.109 14.7916 222.109 17.4829C222.109 20.2059 224.072 22.2322 226.7 22.2322C229.296 22.2322 231.291 20.2059 231.291 17.4829C231.291 14.7916 229.296 12.7335 226.7 12.7335Z" fill="#17294D"/>
<defs>
<linearGradient id="paint0_linear_883_81947" x1="9.33333" y1="24" x2="9.33333" y2="28" gradientUnits="userSpaceOnUse">
<stop stop-color="#2E38B9"/>
<stop offset="1" stop-color="#4D57D6"/>
</linearGradient>
<linearGradient id="paint1_linear_883_81947" x1="9.33333" y1="20" x2="9.33333" y2="24" gradientUnits="userSpaceOnUse">
<stop stop-color="#4D57D6"/>
<stop offset="1" stop-color="#7B84EF"/>
</linearGradient>
<linearGradient id="paint2_linear_883_81947" x1="9.33333" y1="4" x2="9.33333" y2="20" gradientUnits="userSpaceOnUse">
<stop stop-color="#7B84EF"/>
<stop offset="1" stop-color="#979EF4"/>
</linearGradient>
<linearGradient id="paint3_linear_883_81947" x1="22.6654" y1="8" x2="22.6654" y2="4" gradientUnits="userSpaceOnUse">
<stop stop-color="#2E38B9"/>
<stop offset="1" stop-color="#4D57D6"/>
</linearGradient>
<linearGradient id="paint4_linear_883_81947" x1="22.6654" y1="12" x2="22.6654" y2="8" gradientUnits="userSpaceOnUse">
<stop stop-color="#4D57D6"/>
<stop offset="1" stop-color="#7B84EF"/>
</linearGradient>
<linearGradient id="paint5_linear_883_81947" x1="22.6654" y1="28" x2="22.6654" y2="12" gradientUnits="userSpaceOnUse">
<stop stop-color="#7B84EF"/>
<stop offset="1" stop-color="#979EF4"/>
</linearGradient>
</defs>
</svg>
