<svg width="240" height="160" viewBox="0 0 240 160" fill="none" xmlns="http://www.w3.org/2000/svg">
  <rect x="20" y="22" width="58" height="104" rx="12" fill="#F7F2E9"/>
  <rect x="92" y="22" width="58" height="104" rx="12" fill="#FFF3D6"/>
  <rect x="164" y="22" width="58" height="104" rx="12" fill="#E9F2FF"/>
  <rect x="30" y="40" width="38" height="10" rx="5" fill="#34C759"/>
  <rect x="102" y="40" width="38" height="10" rx="5" fill="#FF9F0A"/>
  <rect x="174" y="40" width="38" height="10" rx="5" fill="#0A84FF"/>
  <rect x="30" y="62" width="38" height="44" rx="10" fill="white"/>
  <rect x="102" y="62" width="38" height="26" rx="10" fill="white"/>
  <rect x="174" y="62" width="38" height="34" rx="10" fill="white"/>
  <path d="M68 124C83.5 137.5 102.5 143 121 143C139.5 143 157 137.5 172 124" stroke="#1E1B17" stroke-width="6" stroke-linecap="round"/>
</svg>
