<svg width="160" height="32" viewBox="0 0 160 32" fill="none" xmlns="http://www.w3.org/2000/svg">
<path d="M4 25.3333C4 26.8061 5.19391 28 6.66667 28H12C13.4728 28 14.6667 26.8061 14.6667 25.3333V6.66667C14.6667 5.19391 13.4728 4 12 4H6.66667C5.19391 4 4 5.19391 4 6.66667V25.3333Z" fill="url(#paint0_linear_22052_115820)"/>
<path d="M4 21.3333C4 22.8061 5.19391 24 6.66667 24H12C13.4728 24 14.6667 22.8061 14.6667 21.3333V6.66667C14.6667 5.19391 13.4728 4 12 4H6.66667C5.19391 4 4 5.19391 4 6.66667V21.3333Z" fill="url(#paint1_linear_22052_115820)"/>
<path d="M4 17.3333C4 18.8061 5.19391 20 6.66667 20H12C13.4728 20 14.6667 18.8061 14.6667 17.3333V6.66667C14.6667 5.19391 13.4728 4 12 4H6.66667C5.19391 4 4 5.19391 4 6.66667V17.3333Z" fill="url(#paint2_linear_22052_115820)"/>
<path d="M17.333 6.66667C17.333 5.19391 18.5269 4 19.9997 4H25.333C26.8058 4 27.9997 5.19391 27.9997 6.66667V25.3333C27.9997 26.8061 26.8058 28 25.333 28H19.9997C18.5269 28 17.333 26.8061 17.333 25.3333V6.66667Z" fill="url(#paint3_linear_22052_115820)"/>
<path d="M17.333 10.6667C17.333 9.19391 18.5269 8 19.9997 8H25.333C26.8058 8 27.9997 9.19391 27.9997 10.6667V25.3333C27.9997 26.8061 26.8058 28 25.333 28H19.9997C18.5269 28 17.333 26.8061 17.333 25.3333V10.6667Z" fill="url(#paint4_linear_22052_115820)"/>
<path d="M17.333 14.6667C17.333 13.1939 18.5269 12 19.9997 12H25.333C26.8058 12 27.9997 13.1939 27.9997 14.6667V25.3333C27.9997 26.8061 26.8058 28 25.333 28H19.9997C18.5269 28 17.333 26.8061 17.333 25.3333V14.6667Z" fill="url(#paint5_linear_22052_115820)"/>
<path d="M141.156 13.1451C142.708 10.7071 144.734 9.59888 147.584 9.59888H147.995V13.4933C144.544 13.4933 141.156 15.4247 141.156 18.591V25.4301H137.42V9.59888H141.156V13.1451Z" fill="#17294D"/>
<path d="M131.498 15.2665C130.897 13.6833 129.757 12.7968 127.636 12.7968C125.799 12.7968 124.469 13.6833 123.773 15.2665H131.498ZM119.403 17.2929C119.403 12.5435 123.171 8.99731 127.889 8.99731C132.385 8.99731 135.614 12.3852 135.614 17.2929V18.4327H123.361C123.551 20.6807 125.609 22.2005 127.636 22.2005C129.377 22.2005 130.897 21.219 131.815 19.7625L134.855 22.0105C133.176 24.4802 130.707 25.9683 127.636 25.9683C122.76 25.9683 119.403 22.0105 119.403 17.2929Z" fill="#17294D"/>
<path d="M105.199 2H108.967V15.3615L115.141 9.59896H119.986L113.4 15.7731L120.682 25.4301H116.344L110.962 18.0211L108.967 19.8892V25.4301H105.199V2Z" fill="#17294D"/>
<path d="M91.8338 17.5146C91.8338 20.9658 94.3984 22.3272 96.5198 22.3272C98.3246 22.3272 100.066 21.1241 100.889 19.9526L103.802 21.9473C102.029 24.6386 99.7177 26.0001 96.5198 26.0001C91.3905 26.0001 87.876 22.1373 87.876 17.5146C87.876 12.9235 91.3905 9.02905 96.5198 9.02905C99.7177 9.02905 101.966 10.2639 103.739 12.8919L100.889 15.0766C99.9393 13.6834 98.3246 12.7335 96.5198 12.7335C94.3984 12.7335 91.8338 14.0634 91.8338 17.5146Z" fill="#17294D"/>
<path d="M82.4052 9.59905H86.173V25.4302H82.4052V23.8471C81.107 25.1453 79.3339 25.9685 77.1809 25.9685C72.3365 25.9685 68.917 22.2323 68.917 17.5146C68.917 12.8286 72.3365 9.06079 77.1809 9.06079C79.3339 9.06079 81.107 9.91568 82.4052 11.2772V9.59905ZM72.7481 17.5146C72.7481 20.2693 74.9328 22.3273 77.5608 22.3273C80.1571 22.3273 82.4052 20.2059 82.4052 17.5146C82.4052 14.8233 80.1571 12.7336 77.5608 12.7336C74.9328 12.7336 72.7481 14.76 72.7481 17.5146Z" fill="#17294D"/>
<path d="M61.5594 13.1451C63.1109 10.7071 65.1372 9.59888 67.9869 9.59888H68.3985V13.4933C64.9473 13.4933 61.5594 15.4247 61.5594 18.591V25.4301H57.8232V9.59888H61.5594V13.1451Z" fill="#17294D"/>
<path d="M43.3562 3.2666H47.124V9.59907H53.3932V13.0503H47.124V21.6624H43.3562V13.0503H40V9.59907H43.3562V3.2666ZM43.3562 21.6624C43.3562 23.5305 44.4961 25.4303 47.124 25.4303V21.6624H56.2428V25.4303H47.124V21.6624H43.3562Z" fill="#17294D"/>
<defs>
<linearGradient id="paint0_linear_22052_115820" x1="9.33333" y1="24" x2="9.33333" y2="28" gradientUnits="userSpaceOnUse">
<stop stop-color="#2E38B9"/>
<stop offset="1" stop-color="#4D57D6"/>
</linearGradient>
<linearGradient id="paint1_linear_22052_115820" x1="9.33333" y1="20" x2="9.33333" y2="24" gradientUnits="userSpaceOnUse">
<stop stop-color="#4D57D6"/>
<stop offset="1" stop-color="#7B84EF"/>
</linearGradient>
<linearGradient id="paint2_linear_22052_115820" x1="9.33333" y1="4" x2="9.33333" y2="20" gradientUnits="userSpaceOnUse">
<stop stop-color="#7B84EF"/>
<stop offset="1" stop-color="#979EF4"/>
</linearGradient>
<linearGradient id="paint3_linear_22052_115820" x1="22.6663" y1="8" x2="22.6663" y2="4" gradientUnits="userSpaceOnUse">
<stop stop-color="#2E38B9"/>
<stop offset="1" stop-color="#4D57D6"/>
</linearGradient>
<linearGradient id="paint4_linear_22052_115820" x1="22.6663" y1="12" x2="22.6663" y2="8" gradientUnits="userSpaceOnUse">
<stop stop-color="#4D57D6"/>
<stop offset="1" stop-color="#7B84EF"/>
</linearGradient>
<linearGradient id="paint5_linear_22052_115820" x1="22.6663" y1="28" x2="22.6663" y2="12" gradientUnits="userSpaceOnUse">
<stop stop-color="#7B84EF"/>
<stop offset="1" stop-color="#979EF4"/>
</linearGradient>
</defs>
</svg>
