<svg width="214" height="48" viewBox="0 0 214 48" fill="none" xmlns="http://www.w3.org/2000/svg">
  <rect x="2" y="2" width="44" height="44" rx="13" fill="#eef1ff"/>
  <rect x="10" y="10" width="13" height="28" rx="6.5" fill="#5260ff"/>
  <rect x="25" y="10" width="13" height="28" rx="6.5" fill="#aeb5ff"/>
  <rect x="10" y="25" width="13" height="13" rx="6.5" fill="#343ee8"/>
  <rect x="25" y="25" width="13" height="13" rx="6.5" fill="#eef0ff"/>
  <path d="M62.3 34c-3 0-4.9-1.7-4.9-4.7V18.8h-3.5v-4h3.5V9.9h5.2v4.9h5.4v4h-5.4v9.4c0 1 .6 1.5 1.7 1.5h3.4V34h-5.4Zm8.6 0V14.8h5v3.1c1-2.2 2.8-3.3 5.2-3.3h1.4v4.9h-1.9c-2.9 0-4.4 1.5-4.4 4.6V34h-5.3Zm21.3.4c-5.4 0-9.6-4.2-9.6-10s4.2-10 9.6-10c2.6 0 4.6 1 5.9 2.7v-2.3h5.2V34h-5.2v-2.3c-1.3 1.7-3.3 2.7-5.9 2.7Zm1.1-4.4c2.9 0 5-2.3 5-5.6s-2.1-5.6-5-5.6-5.1 2.3-5.1 5.6 2.1 5.6 5.1 5.6Zm23.2 4.4c-5.8 0-10.1-4.2-10.1-10s4.3-10 10.1-10c4.8 0 8.4 2.8 9.4 7.1h-5.4c-.6-1.7-2.1-2.7-4-2.7-2.9 0-4.9 2.2-4.9 5.6s2 5.6 4.9 5.6c1.9 0 3.4-1 4-2.7h5.4c-1 4.3-4.6 7.1-9.4 7.1Zm12.3-.4V7.6h5.3v14.8l6.6-7.6h6.1l-7.5 8.4 8 10.8H141l-5.5-7.5-1.4 1.5v6h-5.3Zm28.8.4c-5.8 0-10-4.1-10-10s4.1-10 9.8-10c5.6 0 9.4 4 9.4 9.7 0 .6 0 1.2-.1 1.7h-13.8c.4 2.7 2.1 4.2 4.8 4.2 1.9 0 3.2-.7 3.9-2h5.1c-1.1 3.9-4.4 6.4-9.1 6.4Zm-4.6-12h8.5c-.4-2.3-1.9-3.7-4.1-3.7-2.3 0-3.9 1.4-4.4 3.7Zm16.9 11.6V14.8h5v3.1c1-2.2 2.8-3.3 5.2-3.3h1.4v4.9h-1.9c-2.9 0-4.4 1.5-4.4 4.6V34h-5.3Z" fill="#1a2454"/>
  <text x="55" y="45" font-family="Segoe UI, Arial, sans-serif" font-size="10" font-weight="700" fill="#59627f" letter-spacing="1.8">RETRO</text>
</svg>
